<svg height="512pt" viewBox="0 -4 512 511" width="512pt" xmlns="http://www.w3.org/2000/svg"><path d="m76.800781 222.367188c-4.710937 0-8.535156-3.824219-8.535156-8.535157v-25.597656c0-79.992187 65.078125-145.066406 145.066406-145.066406 4.710938 0 8.535157 3.820312 8.535157 8.53125 0 4.710937-3.824219 8.535156-8.535157 8.535156-70.578125 0-128 57.417969-128 128v25.597656c0 4.710938-3.820312 8.535157-8.53125 8.535157zm0 0"/><path d="m76.808594 222.367188c-2.5 0-4.984375-1.09375-6.664063-3.199219l-34.132812-42.667969c-2.945313-3.679688-2.347657-9.054688 1.332031-11.988281 3.675781-2.953125 9.050781-2.347657 11.996094 1.332031l34.132812 42.664062c2.945313 3.679688 2.347656 9.054688-1.332031 11.988282-1.585937 1.257812-3.464844 1.871094-5.332031 1.871094zm0 0"/><path d="m76.792969 222.367188c-1.871094 0-3.757813-.613282-5.328125-1.871094-3.675782-2.941406-4.273438-8.308594-1.328125-11.988282l34.132812-42.664062c2.941407-3.679688 8.3125-4.285156 11.996094-1.332031 3.679687 2.941406 4.277344 8.308593 1.332031 11.988281l-34.132812 42.667969c-1.691406 2.105469-4.164063 3.199219-6.671875 3.199219zm0 0"/><path d="m298.667969 452.765625c-4.710938 0-8.535157-3.820313-8.535157-8.53125s3.824219-8.535156 8.535157-8.535156c70.578125 0 128-57.421875 128-128v-25.597657c0-4.710937 3.820312-8.535156 8.53125-8.535156 4.710937 0 8.535156 3.824219 8.535156 8.535156v25.597657c0 79.992187-65.078125 145.066406-145.066406 145.066406zm0 0"/><path d="m469.34375 333.300781c-2.503906 0-4.984375-1.09375-6.667969-3.199219l-34.132812-42.667968c-2.941407-3.679688-2.34375-9.054688 1.332031-11.988282 3.679688-2.945312 9.054688-2.347656 12 1.328126l34.132812 42.667968c2.941407 3.679688 2.34375 9.054688-1.332031 11.988282-1.585937 1.257812-3.464843 1.871093-5.332031 1.871093zm0 0"/><path d="m401.058594 333.300781c-1.871094 0-3.753906-.613281-5.324219-1.871093-3.679687-2.941407-4.277344-8.308594-1.332031-11.988282l34.132812-42.667968c2.945313-3.683594 8.3125-4.273438 12-1.328126 3.675782 2.941407 4.273438 8.308594 1.328125 11.988282l-34.132812 42.667968c-1.6875 2.105469-4.164063 3.199219-6.671875 3.199219zm0 0"/><path d="m145.066406 435.699219h-51.199218c-4.710938 0-8.535157-3.820313-8.535157-8.53125 0-4.710938 3.824219-8.535157 8.535157-8.535157h51.199218c9.414063 0 17.066406-7.652343 17.066406-17.066406 0-9.410156-7.652343-17.066406-17.066406-17.066406h-34.132812c-18.824219 0-34.132813-15.308594-34.132813-34.132812 0-18.824219 15.308594-34.132813 34.132813-34.132813h51.199218c4.710938 0 8.535157 3.820313 8.535157 8.53125s-3.824219 8.535156-8.535157 8.535156h-51.199218c-9.414063 0-17.066406 7.652344-17.066406 17.066407 0 9.410156 7.652343 17.066406 17.066406 17.066406h34.132812c18.824219 0 34.132813 15.308594 34.132813 34.132812 0 18.824219-15.308594 34.132813-34.132813 34.132813zm0 0"/><path d="m128 452.765625c-4.710938 0-8.535156-3.820313-8.535156-8.53125v-136.535156c0-4.710938 3.824218-8.53125 8.535156-8.53125s8.535156 3.820312 8.535156 8.53125v136.535156c0 4.710937-3.824218 8.53125-8.535156 8.53125zm0 0"/><path d="m128 503.964844c-70.578125 0-128-57.417969-128-128 0-70.578125 57.421875-128 128-128s128 57.421875 128 128c0 70.582031-57.421875 128-128 128zm0-238.929688c-61.167969 0-110.933594 49.765625-110.933594 110.929688 0 61.167968 49.765625 110.933594 110.933594 110.933594s110.933594-49.765626 110.933594-110.933594c0-61.164063-49.765625-110.929688-110.933594-110.929688zm0 0"/><path d="m486.398438 222.367188h-204.796876c-4.710937 0-8.535156-3.824219-8.535156-8.535157v-119.464843c0-4.710938 3.824219-8.535157 8.535156-8.535157h204.796876c4.710937 0 8.535156 3.824219 8.535156 8.535157v119.464843c0 4.710938-3.824219 8.535157-8.535156 8.535157zm-196.265626-17.066407h187.734376v-102.402343h-187.734376zm0 0"/><path d="m503.464844 102.898438h-238.929688c-4.710937 0-8.535156-3.820313-8.535156-8.53125v-34.132813c0-4.710937 3.824219-8.535156 8.535156-8.535156h238.929688c4.710937 0 8.535156 3.824219 8.535156 8.535156v34.132813c0 4.710937-3.824219 8.53125-8.535156 8.53125zm-230.398438-17.066407h221.867188v-17.066406h-221.867188zm0 0"/><path d="m401.066406 68.765625h-34.132812c-14.113282 0-25.601563-11.484375-25.601563-25.597656 0-14.117188 11.488281-25.601563 25.601563-25.601563h34.132812c14.113282 0 25.601563 11.484375 25.601563 25.601563 0 14.113281-11.488281 25.597656-25.601563 25.597656zm-34.132812-34.132813c-4.710938 0-8.535156 3.832032-8.535156 8.535157 0 4.699219 3.824218 8.53125 8.535156 8.53125h34.132812c4.710938 0 8.535156-3.832031 8.535156-8.53125 0-4.703125-3.824218-8.535157-8.535156-8.535157zm0 0"/><path d="m486.398438 68.765625h-82.890626c-4.710937 0-8.535156-3.820313-8.535156-8.53125 0-4.242187 3.117188-8.089844 7.3125-8.695313 4.234375-.605468 7.316406-4.132812 7.316406-8.371093 0-3.578125-2.3125-6.792969-5.753906-7.996094-2.558594-.898437-4.546875-2.953125-5.339844-5.546875-.804687-2.59375-.316406-5.410156 1.296876-7.59375 5.964843-8.039062 20.070312-21.53125 47.589843-21.53125 10.90625 0 20.703125 3.226562 29.117188 9.589844 11.535156 8.730468 18.421875 22.9375 18.421875 38v12.144531c0 4.710937-3.824219 8.53125-8.535156 8.53125zm-82.890626-8.78125h.085938zm21.664063-8.285156h52.695313v-3.609375c0-9.753906-4.351563-18.867188-11.65625-24.386719-5.386719-4.070313-11.71875-6.136719-18.816407-6.136719-13.210937 0-21.964843 3.984375-27.554687 8.261719 4.285156 4.625 6.828125 10.769531 6.828125 17.339844 0 2.976562-.53125 5.851562-1.496094 8.53125zm0 0"/><path d="m364.492188 68.765625h-82.890626c-4.710937 0-8.535156-3.820313-8.535156-8.53125v-12.144531c0-15.070313 6.886719-29.269532 18.421875-38 8.425781-6.363282 18.21875-9.589844 29.125-9.589844 27.519531 0 41.625 13.492188 47.582031 21.539062 1.613282 2.175782 2.101563 4.992188 1.296876 7.59375-.800782 2.59375-2.78125 4.652344-5.339844 5.546876-3.441406 1.195312-5.753906 4.410156-5.753906 7.988281 0 4.238281 3.082031 7.765625 7.316406 8.371093 4.195312.605469 7.3125 4.207032 7.3125 8.445313 0 4.710937-3.816406 8.78125-8.535156 8.78125zm-74.359376-17.066406h52.695313c-.964844-2.679688-1.496094-5.554688-1.496094-8.53125 0-6.570313 2.542969-12.714844 6.835938-17.339844-5.589844-4.277344-14.34375-8.261719-27.554688-8.261719-7.097656 0-13.429687 2.066406-18.824219 6.144532-7.304687 5.511718-11.65625 14.632812-11.65625 24.378906zm0 0"/><path d="m409.601562 222.367188h-51.203124c-4.707032 0-8.53125-3.824219-8.53125-8.535157v-119.464843c0-4.710938 3.824218-8.535157 8.53125-8.535157h51.203124c4.707032 0 8.53125 3.824219 8.53125 8.535157v119.464843c0 4.710938-3.824218 8.535157-8.53125 8.535157zm-42.667968-17.066407h34.132812v-102.402343h-34.132812zm0 0"/></svg>