<svg width="17" height="15" viewBox="0 0 17 15">
    <defs>
        <path id="7w4qa" d="M403.9 116.8c.939 0 1.7-.716 1.7-1.6 0-.884-.761-1.6-1.7-1.6s-1.7.716-1.7 1.6c0 .884.761 1.6 1.7 1.6zm-6.8-8c.939 0 1.7-.716 1.7-1.6 0-.884-.761-1.6-1.7-1.6s-1.7.716-1.7 1.6c0 .884.761 1.6 1.7 1.6zm-4.25-.8c-.47 0-.85-.358-.85-.8 0-.442.38-.8.85-.8h.957c.378-1.38 1.709-2.4 3.293-2.4s2.915 1.02 3.293 2.4h7.757c.47 0 .85.358.85.8 0 .442-.38.8-.85.8h-7.757c-.378 1.38-1.709 2.4-3.293 2.4s-2.915-1.02-3.293-2.4zm0 8c-.47 0-.85-.358-.85-.8 0-.442.38-.8.85-.8h7.757c.378-1.38 1.709-2.4 3.293-2.4s2.915 1.02 3.293 2.4h.957c.47 0 .85.358.85.8 0 .442-.38.8-.85.8h-.957c-.378 1.38-1.709 2.4-3.293 2.4s-2.915-1.02-3.293-2.4z"></path>
    </defs>
    <g>
        <g transform="translate(-392 -104)">
            <use fill="#0D00A4" xlink:href="#7w4qa"></use>
        </g>
    </g>
</svg>