<svg id="sell_icon" width="25" height="27" viewBox="0 0 25 27">
    <g><g transform="translate(-965 -21)"><g><g><g><g><g fill="#333"><path id="8zsza" d="M970.228 27.473h1.548c.64 0 1.161.469 1.161 1.045 0 .577-.52 1.046-1.16 1.046h-2.78c-.294 0-.534.216-.534.48 0 .265.24.482.533.482h1.473v.993c0 .265.24.481.533.481.294 0 .534-.216.534-.48v-.994h.267c1.214-.016 2.197-.91 2.197-2.008 0-1.105-1-2.007-2.228-2.007h-1.548c-.64 0-1.161-.469-1.161-1.045 0-.577.52-1.046 1.16-1.046h2.736c.294 0 .534-.216.534-.48 0-.265-.24-.482-.534-.482h-1.423v-.977c0-.265-.24-.481-.534-.481-.293 0-.533.216-.533.48v.978h-.24c-1.228 0-2.229.902-2.229 2.008 0 1.105 1 2.007 2.228 2.007z"></path></g><g fill="#fff" fill-opacity="0" stroke="#333" stroke-miterlimit="50" stroke-width=".3"><path id="8zsza" d="M970.228 27.473h1.548c.64 0 1.161.469 1.161 1.045 0 .577-.52 1.046-1.16 1.046h-2.78c-.294 0-.534.216-.534.48 0 .265.24.482.533.482h1.473v.993c0 .265.24.481.533.481.294 0 .534-.216.534-.48v-.994h.267c1.214-.016 2.197-.91 2.197-2.008 0-1.105-1-2.007-2.228-2.007h-1.548c-.64 0-1.161-.469-1.161-1.045 0-.577.52-1.046 1.16-1.046h2.736c.294 0 .534-.216.534-.48 0-.265-.24-.482-.534-.482h-1.423v-.977c0-.265-.24-.481-.534-.481-.293 0-.533.216-.533.48v.978h-.24c-1.228 0-2.229.902-2.229 2.008 0 1.105 1 2.007 2.228 2.007z"></path></g></g><g><g><g fill="#333"><path id="8zszb" d="M983.284 41.284h-2.578v-2.578h2.578zm.01-3.284h-2.588a.706.706 0 0 0-.706.706v2.588c0 .39.316.706.706.706h2.588c.39 0 .706-.316.706-.706v-2.588a.706.706 0 0 0-.706-.706z"></path></g><g fill="#fff" fill-opacity="0" stroke="#333" stroke-miterlimit="50" stroke-width=".5"><path id="8zszb" d="M983.284 41.284h-2.578v-2.578h2.578zm.01-3.284h-2.588a.706.706 0 0 0-.706.706v2.588c0 .39.316.706.706.706h2.588c.39 0 .706-.316.706-.706v-2.588a.706.706 0 0 0-.706-.706z"></path></g></g><g><g fill="#333"><path id="8zszc" d="M988.284 41.284h-2.578v-2.578h2.578zm.01-3.284h-2.588a.706.706 0 0 0-.706.706v2.588c0 .39.316.706.706.706h2.588c.39 0 .706-.316.706-.706v-2.588a.706.706 0 0 0-.706-.706z"></path></g><g fill="#fff" fill-opacity="0" stroke="#333" stroke-miterlimit="50" stroke-width=".5"><path id="8zszc" d="M988.284 41.284h-2.578v-2.578h2.578zm.01-3.284h-2.588a.706.706 0 0 0-.706.706v2.588c0 .39.316.706.706.706h2.588c.39 0 .706-.316.706-.706v-2.588a.706.706 0 0 0-.706-.706z"></path></g></g><g><g fill="#333"><path id="8zszd" d="M983.284 46.284h-2.578v-2.578h2.578zm.01-3.284h-2.588a.706.706 0 0 0-.706.706v2.588c0 .39.316.706.706.706h2.588c.39 0 .706-.316.706-.706v-2.588a.706.706 0 0 0-.706-.706z"></path></g><g fill="#fff" fill-opacity="0" stroke="#333" stroke-miterlimit="50" stroke-width=".5"><path id="8zszd" d="M983.284 46.284h-2.578v-2.578h2.578zm.01-3.284h-2.588a.706.706 0 0 0-.706.706v2.588c0 .39.316.706.706.706h2.588c.39 0 .706-.316.706-.706v-2.588a.706.706 0 0 0-.706-.706z"></path></g></g><g><g fill="#333"><path id="8zsze" d="M988.284 46.284h-2.578v-2.578h2.578zm.01-3.284h-2.588a.706.706 0 0 0-.706.706v2.588c0 .39.316.706.706.706h2.588c.39 0 .706-.316.706-.706v-2.588a.706.706 0 0 0-.706-.706z"></path></g><g fill="#fff" fill-opacity="0" stroke="#333" stroke-miterlimit="50" stroke-width=".5"><path id="8zsze" d="M988.284 46.284h-2.578v-2.578h2.578zm.01-3.284h-2.588a.706.706 0 0 0-.706.706v2.588c0 .39.316.706.706.706h2.588c.39 0 .706-.316.706-.706v-2.588a.706.706 0 0 0-.706-.706z"></path></g></g></g><g><g><g fill="#333"><path id="8zszf" d="M967.581 38.057a9.884 9.884 0 0 1-.48-3.057H966c0 1.125.168 2.269.535 3.397C968.045 43.049 972.359 46 977 46v-1.101c-4.173-.004-8.062-2.663-9.419-6.842"></path></g><g fill="#fff" fill-opacity="0" stroke="#333" stroke-linecap="round" stroke-linejoin="bevel" stroke-miterlimit="50" stroke-width=".5"><path id="8zszf" d="M967.581 38.057a9.884 9.884 0 0 1-.48-3.057H966c0 1.125.168 2.269.535 3.397C968.045 43.049 972.359 46 977 46v-1.101c-4.173-.004-8.062-2.663-9.419-6.842"></path></g></g><g><g fill="#333"><path id="8zszg" d="M988.421 31.178c-1.621-4.997-6.256-8.168-11.241-8.168v1.184c4.483.004 8.66 2.859 10.118 7.349.353 1.088.515 2.194.514 3.283h1.184c0-1.21-.181-2.437-.575-3.648"></path></g><g fill="#fff" fill-opacity="0" stroke="#333" stroke-linecap="round" stroke-linejoin="bevel" stroke-miterlimit="50" stroke-width=".5"><path id="8zszg" d="M988.421 31.178c-1.621-4.997-6.256-8.168-11.241-8.168v1.184c4.483.004 8.66 2.859 10.118 7.349.353 1.088.515 2.194.514 3.283h1.184c0-1.21-.181-2.437-.575-3.648"></path></g></g></g></g></g></g></g></g>
</svg>