<svg xmlns="http://www.w3.org/2000/svg" xmlns:xlink="http://www.w3.org/1999/xlink" width="448" height="512" preserveAspectRatio="xMidYMid meet" viewBox="0 0 448 512" style="-ms-transform: rotate(360deg); -webkit-transform: rotate(360deg); transform: rotate(360deg);"><path d="M313.6 304c-28.7 0-42.5 16-89.6 16c-47.1 0-60.8-16-89.6-16C60.2 304 0 364.2 0 438.4V464c0 26.5 21.5 48 48 48h352c26.5 0 48-21.5 48-48v-25.6c0-74.2-60.2-134.4-134.4-134.4zM400 464H48v-25.6c0-47.6 38.8-86.4 86.4-86.4c14.6 0 38.3 16 89.6 16c51.7 0 74.9-16 89.6-16c47.6 0 86.4 38.8 86.4 86.4V464zM224 288c79.5 0 144-64.5 144-144S303.5 0 224 0S80 64.5 80 144s64.5 144 144 144zm0-240c52.9 0 96 43.1 96 96s-43.1 96-96 96s-96-43.1-96-96s43.1-96 96-96z" fill="#0d00a4"/><rect x="0" y="0" width="448" height="512" fill="rgba(0, 0, 0, 0)" /></svg>