<?xml version="1.0" encoding="iso-8859-1"?>
<svg id="Layer_1" enable-background="new 0 0 100 80" height="100" viewBox="-20 -10 100 80" width="100" xmlns="http://www.w3.org/2000/svg" fill="#457AFB">
	<path d="m59.03 60h-58c-.552 0-1-.448-1-1v-4c0-.552.448-1 1-1h58c.552 0 1 .448 1 1v4c0 .552-.448 1-1 1zm-57-2h56v-2h-56z"/>
	<path d="m57.03 56h-54c-.552 0-1-.448-1-1v-4c0-.552.448-1 1-1h54c.552 0 1 .448 1 1v4c0 .552-.448 1-1 1zm-53-2h52v-2h-52z"/>
	<path d="m17.03 52h-12c-.552 0-1-.448-1-1v-4c0-.552.448-1 1-1h12c.552 0 1 .448 1 1v4c0 .552-.448 1-1 1zm-11-2h10v-2h-10z"/>
	<path d="m15.03 22h-8c-.552 0-1-.448-1-1v-4c0-.552.448-1 1-1h8c.552 0 1 .448 1 1v4c0 .552-.448 1-1 1zm-7-2h6v-2h-6z"/>
	<path d="m15.03 48h-8c-.278 0-.544-.116-.733-.32-.189-.205-.285-.479-.264-.756l2-26c.04-.521.475-.923.997-.923h4c.522 0 .957.402.997.923l2 26c.021.278-.074.552-.263.756-.19.204-.455.32-.734.32zm-6.92-2h5.84l-1.846-24h-2.148z"/><path d="m59.03 14h-58c-.477 0-.888-.337-.98-.805-.093-.468.157-.937.598-1.119l29-12c.245-.102.52-.102.765 0l29 12c.441.182.691.651.599 1.119-.094.468-.505.805-.982.805zm-52.968-2h47.936l-23.968-9.918z"/><path d="m55.03 18h-50c-.552 0-1-.448-1-1v-4c0-.552.448-1 1-1h50c.552 0 1 .448 1 1v4c0 .552-.448 1-1 1zm-49-2h48v-2h-48z"/><path d="m55.03 52h-12c-.552 0-1-.448-1-1v-4c0-.552.448-1 1-1h12c.552 0 1 .448 1 1v4c0 .552-.448 1-1 1zm-11-2h10v-2h-10z"/><path d="m53.03 22h-8c-.552 0-1-.448-1-1v-4c0-.552.448-1 1-1h8c.552 0 1 .448 1 1v4c0 .552-.448 1-1 1zm-7-2h6v-2h-6z"/><path d="m53.03 48h-8c-.278 0-.544-.116-.733-.32-.189-.205-.285-.479-.264-.756l2-26c.04-.521.475-.923.997-.923h4c.522 0 .957.402.997.923l2 26c.021.278-.074.552-.263.756-.19.204-.455.32-.734.32zm-6.92-2h5.84l-1.846-24h-2.148z"/><path d="m36.03 52h-12c-.552 0-1-.448-1-1v-4c0-.552.448-1 1-1h12c.552 0 1 .448 1 1v4c0 .552-.448 1-1 1zm-11-2h10v-2h-10z"/><path d="m34.03 22h-8c-.552 0-1-.448-1-1v-4c0-.552.448-1 1-1h8c.552 0 1 .448 1 1v4c0 .552-.448 1-1 1zm-7-2h6v-2h-6z"/><path d="m34.03 48h-8c-.278 0-.544-.116-.733-.32-.189-.205-.285-.479-.264-.756l2-26c.04-.521.475-.923.997-.923h4c.522 0 .957.402.997.923l2 26c.021.278-.074.552-.263.756-.19.204-.455.32-.734.32zm-6.92-2h5.84l-1.846-24h-2.148z"/>
</svg>